<svg xmlns="http://www.w3.org/2000/svg" viewBox="0 0 128 128" width="128" height="128" role="img" aria-label="Twin-Fang Gland"><title>Twin-Fang Gland</title><defs><radialGradient id="part_venomviper_rare_1" cx="0.5" cy="0.5" r="0.5"><stop offset="0" stop-color="#8aff4a" stop-opacity="0.4"/><stop offset="1" stop-color="#8aff4a" stop-opacity="0"/></radialGradient><radialGradient id="part_venomviper_rare_2" cx="0.4" cy="0.35" r="0.85"><stop offset="0" stop-color="#c0ff7a" stop-opacity="1"/><stop offset="1" stop-color="#2a6a3a" stop-opacity="1"/></radialGradient></defs><circle cx="64" cy="78" r="40" fill="url(#part_venomviper_rare_1)"/><path d="M64 62 C88 62 98 76 98 90 C98 106 82 112 64 112 C46 112 30 106 30 90 C30 76 40 62 64 62 Z" fill="url(#part_venomviper_rare_2)" stroke="#0d0b12" stroke-width="2.5" stroke-linejoin="round" stroke-linecap="round" /><path d="M40 20 H56 Q56 44 48 66 Q42 46 40 20 Z" fill="#eaf5d8" stroke="#0d0b12" stroke-width="2.5" stroke-linejoin="round" stroke-linecap="round" /><path d="M72 20 H88 Q86 46 80 66 Q74 44 72 20 Z" fill="#eaf5d8" stroke="#0d0b12" stroke-width="2.5" stroke-linejoin="round" stroke-linecap="round" /><rect x="38" y="14" width="20" height="8" rx="3" fill="#4a8a3a" stroke="#0d0b12" stroke-width="2.5" stroke-linejoin="round" stroke-linecap="round" /><rect x="70" y="14" width="20" height="8" rx="3" fill="#4a8a3a" stroke="#0d0b12" stroke-width="2.5" stroke-linejoin="round" stroke-linecap="round" /><ellipse cx="46" cy="88" rx="5" ry="9" fill="#fff" fill-opacity=".45" transform="rotate(20 46 88)"/><circle cx="64" cy="90" r="5" fill="#eaffc8" fill-opacity=".8"/></svg>