<svg xmlns="http://www.w3.org/2000/svg" viewBox="0 0 128 128" width="128" height="128" role="img" aria-label="Molten Heart"><title>Molten Heart</title><defs><radialGradient id="part_cindergolem_rare_1" cx="0.5" cy="0.5" r="0.5"><stop offset="0" stop-color="#ff6a1a" stop-opacity="0.6"/><stop offset="1" stop-color="#ff6a1a" stop-opacity="0"/></radialGradient><radialGradient id="part_cindergolem_rare_2" cx="0.45" cy="0.35" r="0.85"><stop offset="0" stop-color="#ffe08a" stop-opacity="1"/><stop offset="1" stop-color="#c8300a" stop-opacity="1"/></radialGradient></defs><circle cx="64" cy="64" r="56" fill="url(#part_cindergolem_rare_1)"/><polygon points="14,86 28,72 32,96" fill="#3a3a44" stroke="#0d0b12" stroke-width="2.5" stroke-linejoin="round" stroke-linecap="round" /><polygon points="114,88 100,72 96,98" fill="#3a3a44" stroke="#0d0b12" stroke-width="2.5" stroke-linejoin="round" stroke-linecap="round" /><polygon points="58,116 64,102 76,116" fill="#3a3a44" stroke="#0d0b12" stroke-width="2.5" stroke-linejoin="round" stroke-linecap="round" /><path d="M64 106 C24 80 22 40 46 34 C56 32 62 38 64 46 C66 38 72 32 82 34 C106 40 104 80 64 106 Z" fill="url(#part_cindergolem_rare_2)" stroke="#0d0b12" stroke-width="2.5" stroke-linejoin="round" stroke-linecap="round" /><path d="M48 44 L58 62 L50 78" fill="none" stroke="#3a1208" stroke-width="2.5" stroke-opacity="0.9" stroke-linecap="round" stroke-linejoin="round" /><path d="M80 46 L72 64 L78 82" fill="none" stroke="#3a1208" stroke-width="2.5" stroke-opacity="0.9" stroke-linecap="round" stroke-linejoin="round" /><path d="M90 24 Q90 30 96 30 Q90 30 90 36 Q90 30 84 30 Q90 30 90 24 Z" fill="#ffd08a" fill-opacity="1"/></svg>