<svg xmlns="http://www.w3.org/2000/svg" viewBox="0 0 128 128" width="128" height="128" role="img" aria-label="Intact Rune Core"><title>Intact Rune Core</title><defs><radialGradient id="part_brokensentinel_rare_bg" cx=".5" cy=".38" r=".8"><stop offset="0" stop-color="#1b2a46"/><stop offset="1" stop-color="#0b0910"/></radialGradient><linearGradient id="part_brokensentinel_rare_rim" x1="0" y1="0" x2="0" y2="1"><stop offset="0" stop-color="#9cc4ff"/><stop offset=".5" stop-color="#4a86e0"/><stop offset="1" stop-color="#28508f"/></linearGradient><radialGradient id="part_brokensentinel_rare_gl" cx=".5" cy=".5" r=".5"><stop offset="0" stop-color="#5ad0ff" stop-opacity=".38"/><stop offset="1" stop-color="#5ad0ff" stop-opacity="0"/></radialGradient><linearGradient id="part_brokensentinel_rare_vg" x1="0" y1="0" x2="0" y2="1"><stop offset=".6" stop-color="#000" stop-opacity="0"/><stop offset="1" stop-color="#000" stop-opacity=".55"/></linearGradient><radialGradient id="part_brokensentinel_rare_1" cx="0.5" cy="0.5" r="0.5"><stop offset="0" stop-color="#5ad0ff" stop-opacity="0.55"/><stop offset="1" stop-color="#5ad0ff" stop-opacity="0"/></radialGradient><linearGradient id="part_brokensentinel_rare_2" x1="0" y1="0" x2="1" y2="1"><stop offset="0" stop-color="#8a8a96"/><stop offset="1" stop-color="#3a3a46"/></linearGradient><radialGradient id="part_brokensentinel_rare_3" cx="0.4" cy="0.35" r="0.75"><stop offset="0" stop-color="#ffffff" stop-opacity="1"/><stop offset="1" stop-color="#36b8f0" stop-opacity="1"/></radialGradient></defs><rect x="3" y="3" width="122" height="122" rx="16" fill="url(#part_brokensentinel_rare_bg)"/><circle cx="64" cy="64" r="58" fill="url(#part_brokensentinel_rare_gl)"/><circle cx="64" cy="64" r="54" fill="url(#part_brokensentinel_rare_1)"/><polygon points="100.4,43.0 100.4,85.0 64.0,106.0 27.6,85.0 27.6,43.0 64.0,22.0" fill="url(#part_brokensentinel_rare_2)" stroke="#0d0b12" stroke-width="2.5" stroke-linejoin="round" stroke-linecap="round" /><circle cx="64" cy="64" r="28" fill="#12202e" stroke="#0d0b12" stroke-width="2.5" stroke-linejoin="round" stroke-linecap="round" /><circle cx="64" cy="64" r="28" fill="none" stroke="#5ad0ff" stroke-width="3"/><path d="M64 44 V84 M48 54 L80 74 M80 54 L48 74" fill="none" stroke="#9ae8ff" stroke-width="3" stroke-opacity="0.9" stroke-linecap="round" stroke-linejoin="round" /><circle cx="64" cy="64" r="8" fill="url(#part_brokensentinel_rare_3)" stroke="#0d0b12" stroke-width="2.5" stroke-linejoin="round" stroke-linecap="round" /><rect x="3" y="3" width="122" height="122" rx="16" fill="url(#part_brokensentinel_rare_vg)"/><rect x="8.5" y="8.5" width="111" height="111" rx="12" fill="none" stroke="#000" stroke-opacity=".55" stroke-width="1.5"/><rect x="3" y="3" width="122" height="122" rx="16" fill="none" stroke="url(#part_brokensentinel_rare_rim)" stroke-width="4"/><rect x="1.2" y="1.2" width="125.6" height="125.6" rx="17.5" fill="none" stroke="#000" stroke-opacity=".6" stroke-width="1.2"/><circle cx="14" cy="14" r="2.6" fill="#9cc4ff" stroke="#0d0b12" stroke-width="1"/><circle cx="114" cy="14" r="2.6" fill="#9cc4ff" stroke="#0d0b12" stroke-width="1"/><circle cx="14" cy="114" r="2.6" fill="#9cc4ff" stroke="#0d0b12" stroke-width="1"/><circle cx="114" cy="114" r="2.6" fill="#9cc4ff" stroke="#0d0b12" stroke-width="1"/></svg>