<svg xmlns="http://www.w3.org/2000/svg" viewBox="0 0 128 128" width="128" height="128" role="img" aria-label="Reinforced Chestplate"><title>Reinforced Chestplate</title><defs><linearGradient id="equip_body_phys_t2_1" x1="0" y1="0" x2="0" y2="1"><stop offset="0" stop-color="#e6ecf8"/><stop offset="1" stop-color="#8fa0c4"/></linearGradient><linearGradient id="equip_body_phys_t2_2" x1="0" y1="0" x2="0" y2="1"><stop offset="0" stop-color="#e6ecf8"/><stop offset="1" stop-color="#8fa0c4"/></linearGradient><linearGradient id="equip_body_phys_t2_3" x1="0" y1="0" x2="1" y2="0"><stop offset="0" stop-color="#e6ecf8"/><stop offset="1" stop-color="#8fa0c4"/></linearGradient></defs><circle cx="28" cy="42" r="15" fill="url(#equip_body_phys_t2_1)" stroke="#0d0b12" stroke-width="2.5" stroke-linejoin="round" stroke-linecap="round" /><circle cx="100" cy="42" r="15" fill="url(#equip_body_phys_t2_2)" stroke="#0d0b12" stroke-width="2.5" stroke-linejoin="round" stroke-linecap="round" /><path d="M38 28 H90 L98 46 V96 Q64 112 30 96 V46 Z" fill="#8fa0c4" stroke="#0d0b12" stroke-width="2.5" stroke-linejoin="round" stroke-linecap="round" /><path d="M64 28 H38 L30 46 V96 Q47 104 64 106 Z" fill="url(#equip_body_phys_t2_3)"  /><path d="M38 28 H90 L98 46 V96 Q64 112 30 96 V46 Z" fill="none" stroke="#0d0b12" stroke-width="2.5" stroke-linejoin="round" stroke-linecap="round" /><path d="M50 28 Q64 42 78 28" fill="#4a5878" stroke="#0d0b12" stroke-width="2.5" stroke-linejoin="round" stroke-linecap="round" /><line x1="64" y1="40" x2="64" y2="104" stroke="#4a5878" stroke-width="2.4" stroke-opacity="0.8" stroke-linecap="round" /><rect x="30" y="76" width="68" height="10" rx="0" fill="#3e4f78" stroke="#0d0b12" stroke-width="2.5" stroke-linejoin="round" stroke-linecap="round" /><path d="M36 56 Q64 64 92 56" fill="none" stroke="#4a86e0" stroke-width="3" stroke-opacity="1" stroke-linecap="round" stroke-linejoin="round" /><circle cx="64" cy="81" r="4" fill="#6ab4ff" stroke="#0d0b12" stroke-width="2.5" stroke-linejoin="round" stroke-linecap="round" /></svg>