<svg xmlns="http://www.w3.org/2000/svg" viewBox="0 0 128 128" width="128" height="128" role="img" aria-label="Ancient Shield"><title>Ancient Shield</title><defs><linearGradient id="equip_shield_t3_1" x1="0" y1="0" x2="1" y2="1"><stop offset="0" stop-color="#7d789c"/><stop offset="1" stop-color="#332e4c"/></linearGradient><clipPath id="equip_shield_t3_2"><path d="M28 20 H100 V62 C100 90 82 104 64 114 C46 104 28 90 28 62 Z"/></clipPath><radialGradient id="equip_shield_t3_3" cx="0.5" cy="0.5" r="0.5"><stop offset="0" stop-color="#a563e0" stop-opacity="0.5"/><stop offset="1" stop-color="#a563e0" stop-opacity="0"/></radialGradient></defs><path d="M28 20 H100 V62 C100 90 82 104 64 114 C46 104 28 90 28 62 Z" fill="url(#equip_shield_t3_1)" stroke="#0d0b12" stroke-width="2.5" stroke-linejoin="round" stroke-linecap="round" /><g clip-path="url(#equip_shield_t3_2)"><rect x="0" y="0" width="64" height="128" rx="0" fill="#fff" fill-opacity=".1"/><rect x="28" y="20" width="72" height="14" rx="0" fill="#e6b444" stroke="#0d0b12" stroke-width="2.5" stroke-linejoin="round" stroke-linecap="round" /><polygon points="64,40 82,64 64,94 46,64" fill="#22143a" stroke="#0d0b12" stroke-width="2.5" stroke-linejoin="round" stroke-linecap="round" /><polygon points="64,48 76,64 64,84 52,64" fill="#a563e0"  /></g><path d="M28 20 H100 V62 C100 90 82 104 64 114 C46 104 28 90 28 62 Z" fill="none" stroke="#e6b444" stroke-width="3.4" stroke-linejoin="round" stroke-linecap="round"/><circle cx="64" cy="64" r="5" fill="#e0a0ff" stroke="#0d0b12" stroke-width="2.5" stroke-linejoin="round" stroke-linecap="round" /><circle cx="64" cy="64" r="30" fill="url(#equip_shield_t3_3)"/></svg>