<svg xmlns="http://www.w3.org/2000/svg" viewBox="0 0 128 128" width="128" height="128" role="img" aria-label="Cinderproof Boots"><title>Cinderproof Boots</title><defs><linearGradient id="equip_shoes_fire_t2_1" x1="0" y1="0" x2="1" y2="1"><stop offset="0" stop-color="#8fa0c4"/><stop offset="1" stop-color="#3e4a68"/></linearGradient></defs><path d="M42 20 H74 V60 Q74 68 84 72 Q102 78 102 90 V98 H42 Z" fill="url(#equip_shoes_fire_t2_1)" stroke="#0d0b12" stroke-width="2.5" stroke-linejoin="round" stroke-linecap="round" /><path d="M42 20 H58 V98 H42 Z" fill="#fff" fill-opacity=".1"/><path d="M42 20 H74 V60 Q74 68 84 72 Q102 78 102 90 V98 H42 Z" fill="none" stroke="#0d0b12" stroke-width="2.5" stroke-linejoin="round" stroke-linecap="round" /><rect x="40" y="16" width="36" height="12" rx="5" fill="#6fa0e8" stroke="#0d0b12" stroke-width="2.5" stroke-linejoin="round" stroke-linecap="round" /><rect x="42" y="92" width="62" height="10" rx="3" fill="#1a1620" stroke="#0d0b12" stroke-width="2.5" stroke-linejoin="round" stroke-linecap="round" /><path d="M74 66 Q88 68 96 76" fill="none" stroke="#000" stroke-width="2" stroke-opacity="0.5" stroke-linecap="round" stroke-linejoin="round" /><path d="M42 48 H74" fill="none" stroke="#6fa0e8" stroke-width="3.4" stroke-opacity="1" stroke-linecap="round" stroke-linejoin="round" /><path d="M42 74 H80" fill="none" stroke="#6fa0e8" stroke-width="3" stroke-opacity="1" stroke-linecap="round" stroke-linejoin="round" /><path d="M58 49 Q68 59 64 68 Q58 72 52 68 Q49 60 56 56 Q56 52 58 49 Z" fill="#ff8a2a" stroke="#0d0b12" stroke-width="1.6" stroke-linejoin="round" stroke-linecap="round"/><path d="M46 34 V84" fill="none" stroke="#fff" stroke-width="2" stroke-opacity="0.25" stroke-linecap="round" stroke-linejoin="round" /></svg>