<svg xmlns="http://www.w3.org/2000/svg" viewBox="0 0 128 128" width="128" height="128" role="img" aria-label="Ancient Greatsword"><title>Ancient Greatsword</title><defs><linearGradient id="equip_greatsword_t3_1" x1="0" y1="0" x2="1" y2="0"><stop offset="0" stop-color="#dcd6f2"/><stop offset="1" stop-color="#7d789c"/></linearGradient><radialGradient id="equip_greatsword_t3_2" cx="0.5" cy="0.5" r="0.5"><stop offset="0" stop-color="#a563e0" stop-opacity="0.55"/><stop offset="1" stop-color="#a563e0" stop-opacity="0"/></radialGradient></defs><g transform="rotate(45 64 64) translate(0,-4) scale(.94) translate(4,4)"><polygon points="64,4 75,20 75,82 53,82 53,20" fill="#7d789c" stroke="#0d0b12" stroke-width="2.5" stroke-linejoin="round" stroke-linecap="round" /><polygon points="64,4 53,20 53,82 64,82" fill="url(#equip_greatsword_t3_1)"  /><polygon points="64,4 75,20 75,82 53,82 53,20" fill="none" stroke="#0d0b12" stroke-width="2.5" stroke-linejoin="round" stroke-linecap="round" /><line x1="64" y1="16" x2="64" y2="78" stroke="#a563e0" stroke-width="3.6" stroke-opacity="1" stroke-linecap="round" /><circle cx="64" cy="44" r="30" fill="url(#equip_greatsword_t3_2)"/><line x1="59" y1="30" x2="61" y2="30" stroke="#e0a0ff" stroke-width="2.2" stroke-opacity="1" stroke-linecap="round" /><line x1="67" y1="34" x2="69" y2="34" stroke="#e0a0ff" stroke-width="2.2" stroke-opacity="1" stroke-linecap="round" /><line x1="59" y1="44" x2="61" y2="44" stroke="#e0a0ff" stroke-width="2.2" stroke-opacity="1" stroke-linecap="round" /><line x1="67" y1="48" x2="69" y2="48" stroke="#e0a0ff" stroke-width="2.2" stroke-opacity="1" stroke-linecap="round" /><line x1="59" y1="58" x2="61" y2="58" stroke="#e0a0ff" stroke-width="2.2" stroke-opacity="1" stroke-linecap="round" /><line x1="67" y1="62" x2="69" y2="62" stroke="#e0a0ff" stroke-width="2.2" stroke-opacity="1" stroke-linecap="round" /><line x1="59" y1="70" x2="61" y2="70" stroke="#e0a0ff" stroke-width="2.2" stroke-opacity="1" stroke-linecap="round" /><line x1="67" y1="74" x2="69" y2="74" stroke="#e0a0ff" stroke-width="2.2" stroke-opacity="1" stroke-linecap="round" /><path d="M30 82 Q46 76 64 88 Q82 76 98 82 Q92 96 64 92 Q36 96 30 82 Z" fill="#e6b444" stroke="#0d0b12" stroke-width="2.5" stroke-linejoin="round" stroke-linecap="round" /><circle cx="64" cy="86" r="4" fill="#e0a0ff" stroke="#0d0b12" stroke-width="2.5" stroke-linejoin="round" stroke-linecap="round" /><rect x="60" y="91" width="8" height="19" rx="2" fill="#22143a" stroke="#0d0b12" stroke-width="2.5" stroke-linejoin="round" stroke-linecap="round" /><line x1="60" y1="94" x2="68" y2="97" stroke="#e6b444" stroke-width="1.6" stroke-opacity="0.8" stroke-linecap="round" /><line x1="60" y1="99" x2="68" y2="102" stroke="#e6b444" stroke-width="1.6" stroke-opacity="0.8" stroke-linecap="round" /><line x1="60" y1="104" x2="68" y2="107" stroke="#e6b444" stroke-width="1.6" stroke-opacity="0.8" stroke-linecap="round" /><circle cx="64" cy="115" r="6" fill="#e6b444" stroke="#0d0b12" stroke-width="2.5" stroke-linejoin="round" stroke-linecap="round" /><circle cx="64" cy="115" r="2.4" fill="#e0a0ff"  /></g></svg>