<svg xmlns="http://www.w3.org/2000/svg" viewBox="0 0 128 128" width="128" height="128" role="img" aria-label="Worn Staff"><title>Worn Staff</title><defs><radialGradient id="equip_staff_t1_bg" cx=".5" cy=".38" r=".8"><stop offset="0" stop-color="#2b2b34"/><stop offset="1" stop-color="#0b0910"/></radialGradient><linearGradient id="equip_staff_t1_rim" x1="0" y1="0" x2="0" y2="1"><stop offset="0" stop-color="#c9cad2"/><stop offset=".5" stop-color="#8b8d96"/><stop offset="1" stop-color="#4a4a54"/></linearGradient><radialGradient id="equip_staff_t1_gl" cx=".5" cy=".5" r=".5"><stop offset="0" stop-color="#9a9aa2" stop-opacity=".38"/><stop offset="1" stop-color="#9a9aa2" stop-opacity="0"/></radialGradient><linearGradient id="equip_staff_t1_vg" x1="0" y1="0" x2="0" y2="1"><stop offset=".6" stop-color="#000" stop-opacity="0"/><stop offset="1" stop-color="#000" stop-opacity=".55"/></linearGradient><radialGradient id="equip_staff_t1_1" cx="0.4" cy="0.35" r="0.75"><stop offset="0" stop-color="#e8c090" stop-opacity="1"/><stop offset="1" stop-color="#d0803a" stop-opacity="1"/></radialGradient></defs><rect x="3" y="3" width="122" height="122" rx="16" fill="url(#equip_staff_t1_bg)"/><circle cx="64" cy="64" r="58" fill="url(#equip_staff_t1_gl)"/><g transform="rotate(45 64 64)"><rect x="61" y="34" width="6" height="80" rx="3" fill="#7a5230" stroke="#0d0b12" stroke-width="2.5" stroke-linejoin="round" stroke-linecap="round" /><line x1="63" y1="38" x2="63" y2="110" stroke="#c4c0b6" stroke-width="1.4" stroke-opacity="0.4" stroke-linecap="round" /><line x1="61" y1="58" x2="67" y2="61" stroke="#a8743e" stroke-width="1.8" stroke-opacity="0.85" stroke-linecap="round" /><line x1="61" y1="66" x2="67" y2="69" stroke="#a8743e" stroke-width="1.8" stroke-opacity="0.85" stroke-linecap="round" /><line x1="61" y1="74" x2="67" y2="77" stroke="#a8743e" stroke-width="1.8" stroke-opacity="0.85" stroke-linecap="round" /><path d="M56 14 Q48 34 60 40 M72 14 Q80 34 68 40" fill="none" stroke="#0d0b12" stroke-width="9" stroke-linecap="round" stroke-linejoin="round"/><path d="M56 14 Q48 34 60 40 M72 14 Q80 34 68 40" fill="none" stroke="#7a5230" stroke-width="4" stroke-linecap="round" stroke-linejoin="round"/><circle cx="64" cy="24" r="8" fill="url(#equip_staff_t1_1)" stroke="#0d0b12" stroke-width="2.5" stroke-linejoin="round" stroke-linecap="round" /></g><rect x="3" y="3" width="122" height="122" rx="16" fill="url(#equip_staff_t1_vg)"/><rect x="8.5" y="8.5" width="111" height="111" rx="12" fill="none" stroke="#000" stroke-opacity=".55" stroke-width="1.5"/><rect x="3" y="3" width="122" height="122" rx="16" fill="none" stroke="url(#equip_staff_t1_rim)" stroke-width="4"/><rect x="1.2" y="1.2" width="125.6" height="125.6" rx="17.5" fill="none" stroke="#000" stroke-opacity=".6" stroke-width="1.2"/></svg>