<svg xmlns="http://www.w3.org/2000/svg" viewBox="0 0 128 128" width="128" height="128" role="img" aria-label="Reinforced Arcane Chestplate"><title>Reinforced Arcane Chestplate</title><defs><radialGradient id="equip_body_magic_t2_bg" cx=".5" cy=".38" r=".8"><stop offset="0" stop-color="#1b2a46"/><stop offset="1" stop-color="#0b0910"/></radialGradient><linearGradient id="equip_body_magic_t2_rim" x1="0" y1="0" x2="0" y2="1"><stop offset="0" stop-color="#9cc4ff"/><stop offset=".5" stop-color="#4a86e0"/><stop offset="1" stop-color="#28508f"/></linearGradient><radialGradient id="equip_body_magic_t2_gl" cx=".5" cy=".5" r=".5"><stop offset="0" stop-color="#4a86e0" stop-opacity=".38"/><stop offset="1" stop-color="#4a86e0" stop-opacity="0"/></radialGradient><linearGradient id="equip_body_magic_t2_vg" x1="0" y1="0" x2="0" y2="1"><stop offset=".6" stop-color="#000" stop-opacity="0"/><stop offset="1" stop-color="#000" stop-opacity=".55"/></linearGradient><linearGradient id="equip_body_magic_t2_1" x1="0" y1="0" x2="1" y2="1"><stop offset="0" stop-color="#3e4f78"/><stop offset="1" stop-color="#232d48"/></linearGradient></defs><rect x="3" y="3" width="122" height="122" rx="16" fill="url(#equip_body_magic_t2_bg)"/><circle cx="64" cy="64" r="58" fill="url(#equip_body_magic_t2_gl)"/><path d="M48 22 L64 32 L80 22 L102 50 L94 62 V106 H34 V62 L26 50 Z" fill="url(#equip_body_magic_t2_1)" stroke="#0d0b12" stroke-width="2.5" stroke-linejoin="round" stroke-linecap="round" /><path d="M64 32 L48 22 L26 50 L34 62 V106 H64 Z" fill="#fff" fill-opacity=".08"/><path d="M48 22 L64 32 L80 22 L102 50 L94 62 V106 H34 V62 L26 50 Z" fill="none" stroke="#0d0b12" stroke-width="2.5" stroke-linejoin="round" stroke-linecap="round" /><path d="M48 22 L64 60 L80 22" fill="#232d48" stroke="#0d0b12" stroke-width="2.5" stroke-linejoin="round" stroke-linecap="round" /><path d="M48 22 L64 58 L80 22" fill="none" stroke="#6fa0e8" stroke-width="3" stroke-opacity="1" stroke-linecap="round" stroke-linejoin="round" /><rect x="34" y="78" width="60" height="9" rx="0" fill="#232d48" stroke="#0d0b12" stroke-width="2.5" stroke-linejoin="round" stroke-linecap="round" /><path d="M34 82.5 H94" fill="none" stroke="#6fa0e8" stroke-width="2.4" stroke-opacity="0.9" stroke-linecap="round" stroke-linejoin="round" /><circle cx="64" cy="82" r="7" fill="#6ab4ff" stroke="#0d0b12" stroke-width="2.5" stroke-linejoin="round" stroke-linecap="round" /><path d="M34 100 H94" fill="none" stroke="#4a86e0" stroke-width="3" stroke-opacity="1" stroke-linecap="round" stroke-linejoin="round" /><rect x="3" y="3" width="122" height="122" rx="16" fill="url(#equip_body_magic_t2_vg)"/><rect x="8.5" y="8.5" width="111" height="111" rx="12" fill="none" stroke="#000" stroke-opacity=".55" stroke-width="1.5"/><rect x="3" y="3" width="122" height="122" rx="16" fill="none" stroke="url(#equip_body_magic_t2_rim)" stroke-width="4"/><rect x="1.2" y="1.2" width="125.6" height="125.6" rx="17.5" fill="none" stroke="#000" stroke-opacity=".6" stroke-width="1.2"/><circle cx="14" cy="14" r="2.6" fill="#9cc4ff" stroke="#0d0b12" stroke-width="1"/><circle cx="114" cy="14" r="2.6" fill="#9cc4ff" stroke="#0d0b12" stroke-width="1"/><circle cx="14" cy="114" r="2.6" fill="#9cc4ff" stroke="#0d0b12" stroke-width="1"/><circle cx="114" cy="114" r="2.6" fill="#9cc4ff" stroke="#0d0b12" stroke-width="1"/></svg>