<svg xmlns="http://www.w3.org/2000/svg" viewBox="0 0 128 128" width="128" height="128" role="img" aria-label="Worn Sword"><title>Worn Sword</title><defs><radialGradient id="equip_sword_t1_bg" cx=".5" cy=".38" r=".8"><stop offset="0" stop-color="#2b2b34"/><stop offset="1" stop-color="#0b0910"/></radialGradient><linearGradient id="equip_sword_t1_rim" x1="0" y1="0" x2="0" y2="1"><stop offset="0" stop-color="#c9cad2"/><stop offset=".5" stop-color="#8b8d96"/><stop offset="1" stop-color="#4a4a54"/></linearGradient><radialGradient id="equip_sword_t1_gl" cx=".5" cy=".5" r=".5"><stop offset="0" stop-color="#9a9aa2" stop-opacity=".38"/><stop offset="1" stop-color="#9a9aa2" stop-opacity="0"/></radialGradient><linearGradient id="equip_sword_t1_vg" x1="0" y1="0" x2="0" y2="1"><stop offset=".6" stop-color="#000" stop-opacity="0"/><stop offset="1" stop-color="#000" stop-opacity=".55"/></linearGradient><linearGradient id="equip_sword_t1_1" x1="0" y1="0" x2="1" y2="0"><stop offset="0" stop-color="#c4c0b6"/><stop offset="1" stop-color="#84817a"/></linearGradient></defs><rect x="3" y="3" width="122" height="122" rx="16" fill="url(#equip_sword_t1_bg)"/><circle cx="64" cy="64" r="58" fill="url(#equip_sword_t1_gl)"/><g transform="rotate(45 64 64) translate(0,-2)"><polygon points="64,10 71,24 71,80 57,80 57,24" fill="#84817a" stroke="#0d0b12" stroke-width="2.5" stroke-linejoin="round" stroke-linecap="round" /><polygon points="64,10 57,24 57,80 64,80" fill="url(#equip_sword_t1_1)"  /><polygon points="64,10 71,24 71,80 57,80 57,24" fill="none" stroke="#0d0b12" stroke-width="2.5" stroke-linejoin="round" stroke-linecap="round" /><path d="M71 40 L66 45 L71 50 Z" fill="#14111a"  /><circle cx="60" cy="62" r="2" fill="#8a5a34" fill-opacity=".8"/><circle cx="67" cy="32" r="1.6" fill="#8a5a34"  /><rect x="46" y="80" width="36" height="7" rx="2" fill="#a8743e" stroke="#0d0b12" stroke-width="2.5" stroke-linejoin="round" stroke-linecap="round" /><rect x="60.5" y="87" width="7" height="17" rx="2" fill="#3e2e20" stroke="#0d0b12" stroke-width="2.5" stroke-linejoin="round" stroke-linecap="round" /><line x1="60.5" y1="90" x2="67.5" y2="93" stroke="#a8743e" stroke-width="1.6" stroke-opacity="0.8" stroke-linecap="round" /><line x1="60.5" y1="95" x2="67.5" y2="98" stroke="#a8743e" stroke-width="1.6" stroke-opacity="0.8" stroke-linecap="round" /><line x1="60.5" y1="100" x2="67.5" y2="103" stroke="#a8743e" stroke-width="1.6" stroke-opacity="0.8" stroke-linecap="round" /><circle cx="64" cy="108" r="5" fill="#8a5a34" stroke="#0d0b12" stroke-width="2.5" stroke-linejoin="round" stroke-linecap="round" /></g><rect x="3" y="3" width="122" height="122" rx="16" fill="url(#equip_sword_t1_vg)"/><rect x="8.5" y="8.5" width="111" height="111" rx="12" fill="none" stroke="#000" stroke-opacity=".55" stroke-width="1.5"/><rect x="3" y="3" width="122" height="122" rx="16" fill="none" stroke="url(#equip_sword_t1_rim)" stroke-width="4"/><rect x="1.2" y="1.2" width="125.6" height="125.6" rx="17.5" fill="none" stroke="#000" stroke-opacity=".6" stroke-width="1.2"/></svg>